<?xml version="1.0" standalone="no"?>
<!DOCTYPE svg PUBLIC "-//W3C//DTD SVG 20010904//EN"
 "http://www.w3.org/TR/2001/REC-SVG-20010904/DTD/svg10.dtd">
<svg version="1.0" xmlns="http://www.w3.org/2000/svg"
 width="288.000000pt" height="288.000000pt" viewBox="0 0 288.000000 288.000000"
 preserveAspectRatio="xMidYMid meet">
<metadata>
Created by potrace 1.16, written by Peter Selinger 2001-2019
</metadata>
<g transform="translate(0.000000,288.000000) scale(0.100000,-0.100000)"
fill="#000000" stroke="none">
<path d="M1013 2158 c-214 -381 -389 -694 -388 -696 6 -8 272 119 281 135 6
10 51 92 100 183 178 333 240 442 249 443 15 0 121 -198 154 -287 16 -45 33
-80 38 -80 4 1 87 27 183 57 221 71 473 139 662 177 148 31 453 70 540 70 36
0 48 4 48 15 0 13 -25 15 -164 15 -256 0 -551 -30 -799 -81 -54 -11 -101 -18
-104 -16 -4 5 -70 129 -310 589 -49 93 -91 168 -94 168 -3 0 -181 -312 -396
-692z"/>
<path d="M2630 2040 c-838 -82 -1492 -297 -1963 -647 -110 -82 -300 -262 -381
-362 -30 -36 -81 -106 -114 -154 l-60 -88 4 -72 c15 -239 123 -433 316 -565
48 -33 220 -122 236 -122 5 0 12 64 15 143 7 174 27 290 73 426 174 521 644
919 1425 1206 157 58 356 118 544 165 142 36 150 39 153 64 4 31 13 31 -248 6z"/>
<path d="M1870 1626 c-272 -136 -475 -284 -670 -491 -141 -149 -286 -355 -371
-528 l-30 -62 92 100 c307 331 605 602 769 698 l27 17 42 -60 c86 -122 194
-383 208 -500 5 -43 3 -47 -35 -82 -38 -34 -119 -68 -164 -68 -15 0 -18 -8
-18 -45 l0 -45 550 0 550 0 0 24 c0 22 -5 25 -57 31 -131 16 -120 8 -212 145
-110 165 -270 433 -421 708 -67 122 -125 222 -129 221 -3 0 -62 -28 -131 -63z"/>
</g>
</svg>
