<svg version="1.1" id="Layer_1" xmlns="http://www.w3.org/2000/svg" xmlns:xlink="http://www.w3.org/1999/xlink" x="0px" y="0px"
	 width="100%" viewBox="0 0 288 288" enable-background="new 0 0 288 288" xml:space="preserve">
<path fill="#FFFFFF" opacity="1.000000" stroke="none" 
	d="
M289.000000,89.000000 
	C289.000000,155.640915 289.000000,222.281845 289.000000,288.961365 
	C193.062836,288.961365 97.125664,288.961365 1.094242,288.961365 
	C1.094242,193.099991 1.094242,97.199852 1.094242,1.149860 
	C96.999832,1.149860 192.999878,1.149860 289.000000,1.149860 
	C289.000000,23.413460 289.000000,45.738071 288.533966,68.586929 
	C274.493408,69.407478 260.917175,69.642899 247.345261,70.030746 
	C242.088867,70.180977 236.776581,70.265137 231.603653,71.091919 
	C216.408249,73.520561 201.279282,76.363724 186.091812,78.845596 
	C184.861694,79.046623 182.975555,78.073853 182.110657,77.044548 
	C180.575302,75.217400 179.512405,72.968987 178.385834,70.826370 
	C167.720917,50.542774 157.089554,30.241541 146.434998,9.952488 
	C144.338852,5.960864 139.365173,5.651605 137.124695,9.536895 
	C131.645554,19.038483 126.360397,28.651762 120.971634,38.205685 
	C112.180954,53.790985 103.336792,69.346207 94.576981,84.948807 
	C86.122665,100.007294 77.568016,115.015373 69.504166,130.281570 
	C68.089081,132.960556 68.876465,136.802933 68.646675,140.108017 
	C71.263748,139.454681 73.935616,138.965408 76.486389,138.113541 
	C81.663322,136.384598 86.774765,134.459549 91.601883,132.882507 
	C82.283722,139.175934 73.027023,144.866699 64.346703,151.331390 
	C57.002102,156.801300 49.819271,162.680069 43.479706,169.259430 
	C35.502621,177.538254 28.456266,186.713928 21.008869,195.503098 
	C14.662198,202.993256 10.461775,211.565903 12.191484,221.422714 
	C13.767171,230.401794 15.749618,239.678543 19.672113,247.800568 
	C28.047228,265.142242 43.094753,275.841553 60.234806,283.632233 
	C65.486092,286.019135 69.659409,283.566284 69.985542,278.602631 
	C70.374405,272.684113 70.267159,266.702942 71.093071,260.850250 
	C72.335838,252.043610 73.544464,243.140656 75.936058,234.606094 
	C81.418106,215.042999 90.980789,197.629196 104.246552,182.046799 
	C116.401726,167.768921 130.267944,155.515182 145.719559,145.197876 
	C163.594315,133.262589 182.717377,123.358894 202.839279,115.773125 
	C220.141266,109.250435 237.770981,103.554153 255.414169,97.995148 
	C266.457794,94.515511 277.794708,91.966560 289.000000,89.000000 
M160.524597,141.025131 
	C146.875656,150.219696 134.320816,160.646469 122.819740,172.493225 
	C111.284073,184.375641 101.369041,197.419357 92.568184,211.338776 
	C90.062943,215.301041 86.145287,219.229843 88.923820,225.914886 
	C102.029472,212.952072 114.864433,200.316727 127.631081,187.612717 
	C140.398941,174.907471 154.382538,163.752533 169.401840,153.981003 
	C180.740555,168.905060 187.636597,185.482971 192.682022,202.971680 
	C195.614975,213.138062 193.263840,217.744400 183.019897,221.146271 
	C180.291458,222.052353 177.669815,223.279999 175.157959,224.295792 
	C174.787506,233.363083 175.290634,233.891769 183.978668,233.978851 
	C184.645111,233.985519 185.311707,233.979706 185.978226,233.979721 
	C214.305603,233.980087 242.633057,234.010086 270.960236,233.937622 
	C273.974548,233.929901 276.987335,233.322830 279.682587,233.028549 
	C281.207672,226.689117 277.052368,226.411301 273.489044,226.123535 
	C268.834595,225.747650 264.688812,224.873337 262.048126,220.482880 
	C246.534775,194.689850 230.986908,168.917557 215.439560,143.144974 
	C211.219315,136.149155 206.873260,129.227371 202.763535,122.167656 
	C201.163574,119.419235 199.463821,119.781242 197.162918,121.036964 
	C185.162674,127.586082 173.121628,134.060471 160.524597,141.025131 
z"/>
<path fill="#FF0000" opacity="1.000000" stroke="none" 
	d="
M289.000000,88.562500 
	C277.794708,91.966560 266.457794,94.515511 255.414169,97.995148 
	C237.770981,103.554153 220.141266,109.250435 202.839279,115.773125 
	C182.717377,123.358894 163.594315,133.262589 145.719559,145.197876 
	C130.267944,155.515182 116.401726,167.768921 104.246552,182.046799 
	C90.980789,197.629196 81.418106,215.042999 75.936058,234.606094 
	C73.544464,243.140656 72.335838,252.043610 71.093071,260.850250 
	C70.267159,266.702942 70.374405,272.684113 69.985542,278.602631 
	C69.659409,283.566284 65.486092,286.019135 60.234806,283.632233 
	C43.094753,275.841553 28.047228,265.142242 19.672113,247.800568 
	C15.749618,239.678543 13.767171,230.401794 12.191484,221.422714 
	C10.461775,211.565903 14.662198,202.993256 21.008869,195.503098 
	C28.456266,186.713928 35.502621,177.538254 43.479706,169.259430 
	C49.819271,162.680069 57.002102,156.801300 64.346703,151.331390 
	C73.027023,144.866699 82.283722,139.175934 91.561508,132.883011 
	C91.832443,132.616333 92.001755,132.567017 92.289215,132.311295 
	C106.014961,125.903610 119.395821,119.622177 132.905212,113.630569 
	C152.286621,105.034637 172.746124,99.681694 193.341888,95.203270 
	C209.804398,91.623596 226.574554,89.324440 243.293854,87.101562 
	C257.231934,85.248459 271.296021,84.347588 285.299072,82.971664 
	C286.552429,82.848511 287.767273,82.333183 289.000000,81.999992 
	C289.000000,84.041664 289.000000,86.083336 289.000000,88.562500 
z"/>
<path fill="#FF0000" opacity="1.000000" stroke="none" 
	d="
M92.001755,132.567017 
	C92.001755,132.567017 91.832443,132.616333 91.872818,132.615829 
	C86.774765,134.459549 81.663322,136.384598 76.486389,138.113541 
	C73.935616,138.965408 71.263748,139.454681 68.646675,140.108017 
	C68.876465,136.802933 68.089081,132.960556 69.504166,130.281570 
	C77.568016,115.015373 86.122665,100.007294 94.576981,84.948807 
	C103.336792,69.346207 112.180954,53.790985 120.971634,38.205685 
	C126.360397,28.651762 131.645554,19.038483 137.124695,9.536895 
	C139.365173,5.651605 144.338852,5.960864 146.434998,9.952488 
	C157.089554,30.241541 167.720917,50.542774 178.385834,70.826370 
	C179.512405,72.968987 180.575302,75.217400 182.110657,77.044548 
	C182.975555,78.073853 184.861694,79.046623 186.091812,78.845596 
	C201.279282,76.363724 216.408249,73.520561 231.603653,71.091919 
	C236.776581,70.265137 242.088867,70.180977 247.345261,70.030746 
	C260.917175,69.642899 274.493408,69.407478 288.533966,69.055588 
	C289.000000,70.388893 289.000000,71.777779 288.537689,73.530182 
	C272.328278,75.594788 256.447968,76.522079 240.869873,79.204636 
	C223.718521,82.158119 206.740295,86.323143 189.883514,90.715813 
	C176.363602,94.238960 163.064468,98.676582 149.837143,103.204346 
	C146.824142,104.235718 145.294159,103.537262 144.167618,101.423584 
	C141.908112,97.184227 140.143982,92.683731 137.967194,88.396729 
	C134.460831,81.491249 130.785950,74.671341 126.775085,67.040642 
	C123.719719,72.516090 121.336349,76.727898 119.008331,80.970078 
	C111.019180,95.528099 103.004578,110.072548 95.115913,124.684914 
	C93.783333,127.153275 93.025269,129.931793 92.001755,132.567017 
z"/>
<path fill="#FFFFFF" opacity="1.000000" stroke="none" 
	d="
M92.289215,132.311295 
	C93.025269,129.931793 93.783333,127.153275 95.115913,124.684914 
	C103.004578,110.072548 111.019180,95.528099 119.008331,80.970078 
	C121.336349,76.727898 123.719719,72.516090 126.775085,67.040642 
	C130.785950,74.671341 134.460831,81.491249 137.967194,88.396729 
	C140.143982,92.683731 141.908112,97.184227 144.167618,101.423584 
	C145.294159,103.537262 146.824142,104.235718 149.837143,103.204346 
	C163.064468,98.676582 176.363602,94.238960 189.883514,90.715813 
	C206.740295,86.323143 223.718521,82.158119 240.869873,79.204636 
	C256.447968,76.522079 272.328278,75.594788 288.537689,73.946838 
	C289.000000,76.370560 289.000000,78.741112 289.000000,81.555832 
	C287.767273,82.333183 286.552429,82.848511 285.299072,82.971664 
	C271.296021,84.347588 257.231934,85.248459 243.293854,87.101562 
	C226.574554,89.324440 209.804398,91.623596 193.341888,95.203270 
	C172.746124,99.681694 152.286621,105.034637 132.905212,113.630569 
	C119.395821,119.622177 106.014961,125.903610 92.289215,132.311295 
z"/>
<path fill="#FF0202" opacity="1.000000" stroke="none" 
	d="
M160.809692,140.792999 
	C173.121628,134.060471 185.162674,127.586082 197.162918,121.036964 
	C199.463821,119.781242 201.163574,119.419235 202.763535,122.167656 
	C206.873260,129.227371 211.219315,136.149155 215.439560,143.144974 
	C230.986908,168.917557 246.534775,194.689850 262.048126,220.482880 
	C264.688812,224.873337 268.834595,225.747650 273.489044,226.123535 
	C277.052368,226.411301 281.207672,226.689117 279.682587,233.028549 
	C276.987335,233.322830 273.974548,233.929901 270.960236,233.937622 
	C242.633057,234.010086 214.305603,233.980087 185.978226,233.979721 
	C185.311707,233.979706 184.645111,233.985519 183.978668,233.978851 
	C175.290634,233.891769 174.787506,233.363083 175.157959,224.295792 
	C177.669815,223.279999 180.291458,222.052353 183.019897,221.146271 
	C193.263840,217.744400 195.614975,213.138062 192.682022,202.971680 
	C187.636597,185.482971 180.740555,168.905060 169.401840,153.981003 
	C154.382538,163.752533 140.398941,174.907471 127.631081,187.612717 
	C114.864433,200.316727 102.029472,212.952072 88.923820,225.914886 
	C86.145287,219.229843 90.062943,215.301041 92.568184,211.338776 
	C101.369041,197.419357 111.284073,184.375641 122.819740,172.493225 
	C134.320816,160.646469 146.875656,150.219696 160.809692,140.792999 
z"/>
</svg>